<?xml version="1.0" encoding="UTF-8"?>
<svg width="755px" height="755px" viewBox="0 0 755 755" version="1.1" xmlns="http://www.w3.org/2000/svg" xmlns:xlink="http://www.w3.org/1999/xlink">
    <title>Gernas Logo Only</title>
    <g id="Gernas-Logo-Only" stroke="none" stroke-width="1" fill="none" fill-rule="evenodd">
        <g id="logo-only" transform="translate(42.000000, 33.000000)">
            <g id="tree" transform="translate(336.000000, 347.000000) scale(-1, 1) rotate(-180.000000) translate(-336.000000, -347.000000) " fill="#757AE9" fill-rule="nonzero">
                <path d="M317.615762,692.415525 C299.855919,688.29589 280.193236,672.768037 271.313314,656.13105 C268.776194,651.377626 266.556214,647.257991 266.397644,646.941096 C266.239074,646.782648 262.274823,648.367123 257.517722,650.426941 C204.872474,674.352511 145.567284,629.828767 153.971495,572.946119 L155.557196,562.330137 L150.800095,563.439269 C129.551711,567.875799 115.280409,567.400457 99.1062663,561.221005 C80.8707133,554.407763 63.5865804,535.869406 56.7680693,516.221918 C53.9138088,507.665753 52.8038187,484.215525 55.023799,474.550228 L56.1337892,469.638356 L45.6681675,466.944749 C27.2740445,462.508219 12.209892,450.149315 4.12282068,432.878539 C0.475710078,425.114612 0,421.945662 0,408.160731 C0,394.217352 0.475710078,391.206849 4.2813907,383.126027 C6.65994109,378.055708 12.5270321,369.816438 17.4427029,364.746119 L26.1640543,355.556164 C30.604015,353.126636 32.9825654,351.911872 33.2997055,351.911872 C33.6168455,351.911872 38.0568062,350.80274 43.1310471,349.53516 C48.0467179,348.26758 56.2923592,347.158447 61.3666001,347.158447 L70.5636616,347.158447 L76.9064626,347.158447 L88.0063644,347.158447 L99.1062663,347.158447 L105.449067,347.158447 L131.613122,347.158447 L157.777176,347.158447 L164.119977,347.158447 L183.94123,347.158447 L203.762483,347.158447 L211.690985,347.158447 L226.755137,347.158447 L241.81929,347.158447 L249.747791,347.158447 L275.911845,347.158447 L302.0759,347.158447 L302.0759,340.503653 C302.0759,313.250685 296.684519,213.27032 293.988828,190.295434 C288.914587,145.930137 277.021835,109.17032 262.750533,93.3255708 C250.857781,80.0159817 240.709299,78.5899543 207.726734,85.0863014 C170.462778,92.5333333 149.848675,90.3150685 137.480213,77.3223744 C122.89177,62.1114155 116.548969,30.2634703 124.95318,14.260274 C137.638783,-10.1406393 178.074139,-1.4260274 186.161211,27.569863 L188.222621,34.5415525 L198.529673,29.3127854 C221.046616,18.0630137 251.333491,15.0525114 271.947595,22.0242009 C293.195978,29.3127854 311.748671,43.7315068 326.654254,64.9634703 C331.094214,70.9844749 334.899895,76.0547945 335.375605,76.0547945 C335.851315,76.0547945 339.022716,71.7767123 342.511256,66.5479452 C345.999797,61.3191781 354.245438,51.8123288 360.905379,45.3159817 C391.985104,15.6863014 432.103321,9.82374429 472.062967,29.4712329 L482.528589,34.5415525 L484.272859,28.0452055 C491.567081,-1.10913242 532.636717,-10.1406393 545.9566,14.5771689 C549.28657,20.756621 549.60371,23.1333333 548.96943,35.016895 C547.70087,59.2593607 538.345238,76.6885845 521.853956,84.7694064 C513.608314,89.0474886 511.071194,89.5228311 498.068452,89.3643836 C489.50567,89.2059361 475.392938,87.6214612 463.024476,85.0863014 C430.041911,78.5899543 419.893429,80.0159817 408.000677,93.3255708 C393.887945,108.853425 381.519483,146.247032 376.762382,187.918721 C373.908121,212.319635 368.67531,310.39863 368.67531,338.919178 L368.67531,347.158447 L394.839365,347.158447 L421.003419,347.158447 L428.93192,347.158447 L443.996073,347.158447 L459.060225,347.158447 L466.988727,347.158447 L486.80998,347.158447 L506.631233,347.158447 L512.974034,347.158447 L539.138088,347.158447 C556.580791,347.158447 567.41641,347.158447 571.644944,347.158447 L582.744846,347.158447 L593.844747,347.158447 L600.187548,347.158447 L609.38461,347.158447 C617.947391,347.158447 624.924472,348.26758 633.170114,350.961187 C635.495808,351.700609 639.301488,353.549163 644.587156,356.506849 L652.515657,363.953881 C687.242493,396.435616 671.54406,455.694977 625.083042,467.103196 C615.251701,469.479909 614.300281,469.955251 615.251701,472.965753 C615.727411,474.867123 616.520261,481.36347 617.154541,487.384475 C620.008802,521.292237 598.760418,552.66484 566.253563,562.963927 C554.677951,566.766667 536.283828,567.242009 524.391076,564.389954 C519.792545,563.280822 515.828295,562.488584 515.511155,562.805479 C515.194014,563.122374 515.669725,567.875799 516.621145,573.421461 C517.889705,580.710046 517.889705,586.414155 516.462575,594.811872 C508.375503,643.138356 457.474525,670.549772 413.233488,650.426941 C408.476387,648.367123 404.512136,646.782648 404.353566,646.941096 C404.194996,647.257991 401.975016,651.377626 399.437895,655.972603 C390.399404,672.926484 372.639561,686.869863 353.769728,691.940183 C344.731237,694.316895 326.654254,694.63379 317.615762,692.415525 Z" id="Shape"></path>
            </g>
            <g id="left" transform="translate(5.000000, 347.000000)">
                <polyline id="Line" stroke="#757AE9" stroke-width="12" stroke-linecap="round" stroke-linejoin="round" points="52.123506 113.15625 15.9561753 155.65625 15.9561753 193.90625"></polyline>
                <polyline id="Line-4" stroke="#757AE9" stroke-width="12" stroke-linecap="round" stroke-linejoin="round" transform="translate(146.530876, 48.078125) scale(-1, 1) translate(-146.530876, -48.078125) " points="156.90239 -9.86081876e-17 156.90239 34 136.159363 56.84375 136.159363 96.15625"></polyline>
                <polyline id="Line-4" stroke="#757AE9" stroke-width="12" stroke-linecap="round" stroke-linejoin="round" transform="translate(230.300797, 53.390625) scale(-1, 1) translate(-230.300797, -53.390625) " points="251.043825 22.3125 209.557769 45.15625 209.557769 84.46875"></polyline>
                <polyline id="Line-4" stroke="#757AE9" stroke-width="12" stroke-linecap="round" stroke-linejoin="round" transform="translate(225.513944, 141.578125) scale(-1, 1) translate(-225.513944, -141.578125) " points="241.47012 110.5 209.557769 133.34375 209.557769 172.65625"></polyline>
                <polyline id="Line-4" stroke="#757AE9" stroke-width="12" stroke-linecap="round" stroke-linejoin="round" transform="translate(201.047809, 95.359375) scale(-1, 1) translate(-201.047809, -95.359375) " points="192.537849 -9.86081876e-17 192.537849 34 192.537849 140.78125 209.557769 164.15625 209.557769 190.71875"></polyline>
                <polyline id="Line-2" stroke="#757AE9" stroke-width="12" stroke-linecap="round" stroke-linejoin="round" points="55.314741 153.53125 55.314741 202.808277 73.3984064 221.847128 73.3984064 250.21875"></polyline>
                <polyline id="Line-2" stroke="#757AE9" stroke-width="12" stroke-linecap="round" stroke-linejoin="round" points="72.3346614 33.46875 88.2908367 46.21875 118.075697 72.78125 118.075697 132.28125 145.733068 172.65625 145.733068 205.59375"></polyline>
                <polyline id="Line-3" stroke="#757AE9" stroke-width="12" stroke-linecap="round" stroke-linejoin="round" points="116.48008 95.625 92.5576361 119 92.0765332 149.556068 92.0139442 153.53125"></polyline>
                <polyline id="Line" stroke="#757AE9" stroke-width="12" stroke-linecap="round" stroke-linejoin="round" points="71.2709163 0.53125 71.8027888 63.75 55.314741 90.84375 55.314741 150.34375"></polyline>
                <ellipse id="Oval" fill="#757AE9" cx="145.733068" cy="214.09375" rx="15.9561753" ry="15.9375"></ellipse>
                <ellipse id="Oval" fill="#757AE9" cx="192.537849" cy="201.34375" rx="15.9561753" ry="15.9375"></ellipse>
                <ellipse id="Oval" fill="#757AE9" cx="251.043825" cy="95.09375" rx="15.9561753" ry="15.9375"></ellipse>
                <ellipse id="Oval" fill="#757AE9" cx="241.47012" cy="174.78125" rx="15.9561753" ry="15.9375"></ellipse>
                <ellipse id="Oval" fill="#757AE9" cx="157.434263" cy="111.03125" rx="15.9561753" ry="15.9375"></ellipse>
                <ellipse id="Oval" fill="#757AE9" cx="73.3984064" cy="255.53125" rx="15.9561753" ry="15.9375"></ellipse>
                <ellipse id="Oval" fill="#757AE9" cx="15.9561753" cy="197.09375" rx="15.9561753" ry="15.9375"></ellipse>
                <ellipse id="Oval" fill="#757AE9" cx="92.5458167" cy="158.84375" rx="15.9561753" ry="15.9375"></ellipse>
            </g>
            <g id="right" transform="translate(529.500000, 483.000000) scale(-1, 1) translate(-529.500000, -483.000000) translate(396.000000, 347.000000)">
                <polyline id="Line" stroke="#757AE9" stroke-width="12" stroke-linecap="round" stroke-linejoin="round" points="52.123506 113.15625 15.9561753 155.65625 15.9561753 193.90625"></polyline>
                <polyline id="Line-4" stroke="#757AE9" stroke-width="12" stroke-linecap="round" stroke-linejoin="round" transform="translate(146.530876, 48.078125) scale(-1, 1) translate(-146.530876, -48.078125) " points="156.90239 -9.86081876e-17 156.90239 34 136.159363 56.84375 136.159363 96.15625"></polyline>
                <polyline id="Line-4" stroke="#757AE9" stroke-width="12" stroke-linecap="round" stroke-linejoin="round" transform="translate(230.300797, 53.390625) scale(-1, 1) translate(-230.300797, -53.390625) " points="251.043825 22.3125 209.557769 45.15625 209.557769 84.46875"></polyline>
                <polyline id="Line-4" stroke="#757AE9" stroke-width="12" stroke-linecap="round" stroke-linejoin="round" transform="translate(225.513944, 141.578125) scale(-1, 1) translate(-225.513944, -141.578125) " points="241.47012 110.5 209.557769 133.34375 209.557769 172.65625"></polyline>
                <polyline id="Line-4" stroke="#757AE9" stroke-width="12" stroke-linecap="round" stroke-linejoin="round" transform="translate(201.047809, 95.359375) scale(-1, 1) translate(-201.047809, -95.359375) " points="192.537849 -9.86081876e-17 192.537849 34 192.537849 140.78125 209.557769 164.15625 209.557769 190.71875"></polyline>
                <polyline id="Line-2" stroke="#757AE9" stroke-width="12" stroke-linecap="round" stroke-linejoin="round" points="55.314741 153.53125 55.314741 202.808277 73.3984064 221.847128 73.3984064 250.21875"></polyline>
                <polyline id="Line-2" stroke="#757AE9" stroke-width="12" stroke-linecap="round" stroke-linejoin="round" points="72.3346614 33.46875 88.2908367 46.21875 118.075697 72.78125 118.075697 132.28125 145.733068 172.65625 145.733068 205.59375"></polyline>
                <polyline id="Line-3" stroke="#757AE9" stroke-width="12" stroke-linecap="round" stroke-linejoin="round" points="116.48008 95.625 92.5576361 119 92.0765332 149.556068 92.0139442 153.53125"></polyline>
                <polyline id="Line" stroke="#757AE9" stroke-width="12" stroke-linecap="round" stroke-linejoin="round" points="71.2709163 0.53125 71.8027888 63.75 55.314741 90.84375 55.314741 150.34375"></polyline>
                <ellipse id="Oval" fill="#757AE9" cx="145.733068" cy="214.09375" rx="15.9561753" ry="15.9375"></ellipse>
                <ellipse id="Oval" fill="#757AE9" cx="192.537849" cy="201.34375" rx="15.9561753" ry="15.9375"></ellipse>
                <ellipse id="Oval" fill="#757AE9" cx="251.043825" cy="95.09375" rx="15.9561753" ry="15.9375"></ellipse>
                <ellipse id="Oval" fill="#757AE9" cx="241.47012" cy="174.78125" rx="15.9561753" ry="15.9375"></ellipse>
                <ellipse id="Oval" fill="#757AE9" cx="157.434263" cy="111.03125" rx="15.9561753" ry="15.9375"></ellipse>
                <ellipse id="Oval" fill="#757AE9" cx="73.3984064" cy="255.53125" rx="15.9561753" ry="15.9375"></ellipse>
                <ellipse id="Oval" fill="#757AE9" cx="15.9561753" cy="197.09375" rx="15.9561753" ry="15.9375"></ellipse>
                <ellipse id="Oval" fill="#757AE9" cx="92.5458167" cy="158.84375" rx="15.9561753" ry="15.9375"></ellipse>
            </g>
        </g>
    </g>
</svg>